# AST/ASF file generated using VICON BodyLanguage
# -----------------------------------------------
:version 1.10
:name VICON
:units
  mass 1.0
  length 0.1
  angle deg
:documentation
   .ast/.asf automatically generated from VICON data using
   VICON BodyBuilder and BodyLanguage model FULLBODY5.MOD
:root
   order TX TY TZ RZ RY RX
   axis XYZ
   position 0 0 0  
   orientation 0 -0 0 
:bonedata
  begin
     id 1 
     name lhipjoint
     direction 0.961525 -0.229516 0.150972 
     length 0.502153 
     axis 0 -0 0  XYZ
  end
  begin
     id 2 
     name lfemur
     direction 0.173648 -0.984808 0  
     length 1.83052  
     axis 0 -0 10  XYZ
    dof rx ry rz
    limits (-180.0 180.0)
           (-180.0 180.0)
           (-180.0 180.0)
  end
  begin
     id 3 
     name ltibia
     direction 0.173629 -0.984811 0   
     length 1.50296   
     axis 0 -0 10   XYZ
    dof rx ry rz
    limits (-180.0 180.0)
           (-180.0 180.0)
           (-180.0 180.0)
  end
  begin
     id 4 
     name lfoot
     direction 7.59329e-012 -0.227408 0.9738   
     length 0.574743   
     axis -90 -1.73656e-015 10   XYZ
    dof rx ry rz
    limits (-180.0 180.0)
           (-180.0 180.0)
           (-180.0 180.0)
  end
  begin
     id 5 
     name ltoes
     direction 7.79885e-012 -4.41741e-011 1   
     length 0.28489   
     axis -90 -1.73656e-015 10   XYZ
    dof rx ry rz
    limits (-180.0 180.0)
           (-180.0 180.0)
           (-180.0 180.0)
  end
  begin
     id 6 
     name rhipjoint
     direction -0.970498 -0.201437 0.132502   
     length 0.572149  
     axis 0 -0 0  XYZ 
  end
  begin
     id 7 
     name rfemur
     direction -0.173648 -0.984808 0   
     length 1.71866   
     axis 0 -0 -10   XYZ
    dof rx ry rz
    limits (-180.0 180.0)
           (-180.0 180.0)
           (-180.0 180.0)
  end
  begin
     id 8 
     name rtibia
     direction -0.173624 -0.984812 0   
     length 1.42623   
     axis 0 -0 -10   XYZ
    dof rx ry rz
    limits (-180.0 180.0)
           (-180.0 180.0)
           (-180.0 180.0)
 end
 begin
     id 9 
     name rfoot
     direction -7.12931e-012 -0.404275 0.914637   
     length 0.524692  
     axis -90 1.73656e-015 -10   XYZ
    dof rx ry rz
    limits (-180.0 180.0)
           (-180.0 180.0)
           (-180.0 180.0)
  end
  begin
     id 10 
     name rtoes
     direction -7.79289e-012 -4.41454e-011 1   
     length 0.254983   
     axis -90 1.73656e-015 -10   XYZ
    dof rx ry rz
    limits (-180.0 180.0)
           (-180.0 180.0)
           (-180.0 180.0)
  end
  begin
     id 11 
     name lowerback
     direction -0.0214086 0.993738 0.109665   
     length 0.417614   
     axis 0 -0 0   XYZ
    dof rx ry rz
    limits (-180.0 180.0)
           (-180.0 180.0)
           (-180.0 180.0)
  end
  begin
     id 12 
     name upperback
     direction 8.15962e-005 0.99996 0.00893412   
     length 0.419234   
     axis 0 -0 0   XYZ
    dof rx ry rz
    limits (-180.0 180.0)
           (-180.0 180.0)
           (-180.0 180.0)
  end
  begin
     id 13 
     name thorax
     direction 0.00826031 0.999067 -0.0423848   
     length 0.424697   
     axis 0 -0 0   XYZ
    dof rx ry rz
    limits (-180.0 180.0)
           (-180.0 180.0)
           (-180.0 180.0)
  end
  begin
     id 14 
     name lowerneck
     direction -0.0196262 0.994272 -0.105058   
     length 0.355877   
     axis 0 -0 0   XYZ
    dof rx ry rz
    limits (-180.0 180.0)
           (-180.0 180.0)
           (-180.0 180.0)
  end
  begin
     id 15 
     name upperneck
     direction 0.000117372 0.999091 0.0426261   
     length 0.351054   
     axis 0 -0 0   XYZ
    dof rx ry rz
    limits (-180.0 180.0)
           (-180.0 180.0)
           (-180.0 180.0)
  end
  begin
     id 16
     name head
     direction 0.00157618 0.999651 0.0263619  
     length 0.374844  
     axis 0 -0 0   XYZ
    dof rx ry rz
    limits (-180.0 180.0)
           (-180.0 180.0)
           (-180.0 180.0)
  end
  begin
     id 17 
     name lshoulderjoint
     direction 0.981627 -0.190809 0  
     length 0.701763  
     axis 0 -0 -11   XYZ
    dof rx ry rz
    limits (-180.0 180.0)
           (-180.0 180.0)
           (-180.0 180.0)
  end
  begin
     id 18 
     name lhumerus
     direction 0.48481 -0.87462 -1.80676e-026   
     length 0.994704   
     axis -180 5.14477e-009 -151   XYZ
    dof rx ry rz
    limits (-180.0 180.0)
           (-180.0 180.0)
           (-180.0 180.0)
  end
  begin
     id 19
     name lradius
     direction 0.48481 -0.87462 -3.2569e-026   
     length 0.617638   
     axis -180 5.14477e-009 -151   XYZ
    dof rx ry rz
    limits (-180.0 180.0)
           (-180.0 180.0)
           (-180.0 180.0)
  end
  begin
     id 20
     name lwrist
     direction 0.48481 -0.87462 -6.73202e-026   
     length 0.308819   
     axis -180 5.14477e-009 -151   XYZ
    dof rx ry rz
    limits (-180.0 180.0)
           (-180.0 180.0)
           (-180.0 180.0)
  end
  begin
     id 21 
     name lhand
     direction 0.478366 -0.863761 -0.158376   
     length 0.291656   
     axis -180 5.14477e-009 -151   XYZ
    dof rx ry rz
    limits (-180.0 180.0)
           (-180.0 180.0)
           (-180.0 180.0)
  end
  begin
     id 22 
     name rshoulderjoint
     direction -0.981627 -0.190809 0   
     length 0.66654  
     axis 0 -0 11   XYZ 
    dof rx ry rz
    limits (-180.0 180.0)
           (-180.0 180.0)
           (-180.0 180.0)
  end
  begin
     id 23 
     name rhumerus
     direction -0.48481 -0.87462 1.77576e-026  
     length 1.15089   
     axis 180 5.14477e-009 151   XYZ
    dof rx ry rz
    limits (-180.0 180.0)
           (-180.0 180.0)
           (-180.0 180.0)
  end
  begin
     id 24 
     name rradius
     direction -0.48481 -0.87462 3.79421e-026   
     length 0.613887   
     axis 180 5.14477e-009 151   XYZ
    dof rx ry rz
    limits (-180.0 180.0)
           (-180.0 180.0)
           (-180.0 180.0)
  end
  begin
     id 25 
     name rwrist
     direction -0.48481 -0.87462 5.43623e-026   
     length 0.306944   
     axis 180 5.14477e-009 151   XYZ
    dof rx ry rz
    limits (-180.0 180.0)
           (-180.0 180.0)
           (-180.0 180.0)
  end
  begin
     id 26
     name rhand
     direction -0.479273 -0.864638 -0.150661   
     length 0.306429   
     axis 180 5.14477e-009 151   XYZ
    dof rx ry rz
    limits (-180.0 180.0)
           (-180.0 180.0)
           (-180.0 180.0)
  end
:hierarchy
  begin
    root lhipjoint rhipjoint lowerback 
    lhipjoint lfemur
    lfemur ltibia
    ltibia lfoot
    lfoot ltoes
    rhipjoint rfemur
    rfemur rtibia
    rtibia rfoot
    rfoot rtoes
    lowerback upperback
    upperback thorax
    thorax lowerneck lshoulderjoint rshoulderjoint
    lowerneck upperneck
    upperneck head
    lshoulderjoint lhumerus
    lhumerus lradius
    lradius lwrist
    lwrist lhand
    rshoulderjoint rhumerus
    rhumerus rradius
    rradius rwrist
    rwrist rhand
  end

:FULLY-SPECIFIED
:DEGREES
646
root 3.90224 3.52699 -0.399517 105.146 -75.0567 102.805
lowerback -8.393 1.76938 0.55862
upperback -2.30008 2.25789 -0.462385
thorax 2.36203 1.1002 -0.559347
lowerneck 12.116 -0.121345 -3.33911
upperneck -8.43897 -0.528523 1.78105
head -4.48948 -0.261139 1.12947
rshoulderjoint 1.14319 -2.6352 -34.4621
rhumerus 2.63758 -10.3435 -56.512
rradius 40.6458 1.81292e-013 -1.90833e-014
rwrist -1.0639e-012 8.29713 -1.12497e-013
rhand 6.958 -6.82517 35.4094
lshoulderjoint 2.52487 10.0036 25.2435
lhumerus -5.7847 5.54505 50.6297
lradius 23.4649 -2.70347e-013 -2.54444e-014
lwrist -6.56728e-013 -7.94521 9.15244e-014
lhand 18.7551 7.52992 -17.6099
rfemur -1.33774 0.482796 14.6617
rtibia -6.36111e-015 -5.56597e-015 9.54166e-015
rfoot -10.5221 15.1608 -5.41421
rtoes -7.39479e-014 5.24792e-014 -2.38542e-015
lfemur -40.3408 -11.5784 -8.47057
ltibia 23.7131 -1.11319e-014 -1.59028e-015
lfoot -9.09599 -0.668581 18.8683
ltoes -1.28812e-013 2.71341e-014 1.90833e-014
647
root 3.86123 3.51991 -0.397843 105.662 -74.898 103.348
lowerback -8.52736 1.87679 0.694399
upperback -2.3338 2.38682 -0.475558
thorax 2.40958 1.16393 -0.631837
lowerneck 12.112 -0.119979 -3.39816
upperneck -8.39857 -0.536427 1.7829
head -4.476 -0.263441 1.13995
rshoulderjoint 1.129 -2.60241 -34.4625
rhumerus 3.03161 -10.1501 -56.4029
rradius 40.9791 -1.33583e-013 9.46215e-014
rwrist -8.67584e-014 8.18354 3.21327e-013
rhand 7.00122 -6.71549 35.393
lshoulderjoint 2.54397 10.0631 25.2665
lhumerus -6.13685 6.10674 50.5924
lradius 23.549 2.35361e-013 -2.82274e-014
lwrist -2.40816e-013 -7.88051 -2.61687e-013
lhand 18.6976 7.47652 -17.4582
rfemur -0.774805 0.706804 14.6122
rtibia 3.33958e-014 -7.15625e-015 2.06736e-014
rfoot -10.8568 15.0086 -5.63473
rtoes -2.0117e-013 2.72236e-013 1.59028e-015
lfemur -39.9041 -10.8595 -8.57873
ltibia 19.6682 -9.54166e-015 3.18055e-015
lfoot -9.06759 -0.808153 17.6842
ltoes -3.84847e-013 5.13858e-014 1.19271e-015
648
root 3.81942 3.51228 -0.396062 106.078 -74.7224 103.801
lowerback -8.77235 1.97551 0.822749
upperback -2.32677 2.50393 -0.48638
thorax 2.56038 1.22229 -0.69386
lowerneck 12.145 -0.120827 -3.41051
upperneck -8.46504 -0.542431 1.76689
head -4.50181 -0.264702 1.13787
rshoulderjoint 1.10939 -2.56063 -34.4343
rhumerus 3.44951 -10.0047 -56.3157
rradius 41.2952 -6.36111e-015 -7.4743e-014
rwrist 6.00891e-013 8.18934 -1.92799e-013
rhand 6.99444 -6.72292 35.3629
lshoulderjoint 2.55757 10.1049 25.2834
lhumerus -6.40121 6.63667 50.5615
lradius 23.6501 -6.36111e-014 1.70955e-014
lwrist 6.41953e-013 -7.73552 1.70117e-013
lhand 18.6009 7.37743 -17.2958
rfemur -0.212075 0.917897 14.5772
rtibia -3.02153e-014 -5.56597e-015 -1.43125e-014
rfoot -11.1629 14.9531 -5.84317
rtoes 1.59823e-013 -1.16687e-013 -6.52014e-014
lfemur -39.3683 -10.184 -8.73196
ltibia 15.4962 -1.59028e-015 -4.77083e-015
lfoot -8.89594 -1.62112 16.6186
ltoes 3.21236e-013 -3.69739e-014 1.47101e-014
649
root 3.77711 3.50403 -0.394423 106.538 -74.5724 104.28
lowerback -8.97233 2.09473 0.949934
upperback -2.33816 2.64884 -0.528317
thorax 2.66976 1.29436 -0.785364
lowerneck 12.1714 -0.148016 -3.39774
upperneck -8.47738 -0.577856 1.76471
head -4.50903 -0.282403 1.13787
rshoulderjoint 1.12772 -2.61473 -34.3403
rhumerus 3.8338 -9.87982 -56.1695
rradius 41.6056 -6.36111e-015 -7.87187e-014
rwrist 3.66253e-013 8.11782 -1.62244e-013
rhand 7.0129 -6.66232 35.2588
lshoulderjoint 2.56189 10.0616 25.365
lhumerus -6.71689 7.2762 50.5464
lradius 23.7166 1.59028e-014 -2.62396e-014
lwrist 1.17097e-013 -7.52006 -4.97263e-014
lhand 18.6741 7.10481 -17.0872
rfemur 0.380273 1.12915 14.5259
rtibia 2.38542e-014 -4.77083e-015 -1.59028e-015
rfoot -11.4571 14.826 -6.05793
rtoes 1.11319e-014 3.84648e-014 -3.02153e-014
lfemur -38.6187 -9.53356 -8.95292
ltibia 11.0996 -7.95139e-015 -3.18055e-015
lfoot -8.24586 -1.93238 15.5872
ltoes 6.04305e-014 2.98177e-015 -3.37934e-014
650
root 3.73414 3.49527 -0.392659 106.888 -74.4319 104.655
lowerback -9.26072 2.18253 1.05167
upperback -2.2716 2.75377 -0.543955
thorax 2.906 1.34791 -0.834144
lowerneck 12.0386 -0.1685 -3.41787
upperneck -8.47105 -0.603352 1.77328
head -4.48454 -0.294476 1.14507
rshoulderjoint 1.13848 -2.63943 -34.3423
rhumerus 4.29774 -9.80303 -56.1963
rradius 41.8777 1.59028e-015 -7.95139e-014
rwrist 3.56702e-013 8.21521 -1.73531e-013
rhand 7.01325 -6.71915 35.1954
lshoulderjoint 2.56644 10.077 25.3686
lhumerus -6.94141 7.73303 50.5048
lradius 23.7967 1.90833e-014 -8.22969e-014
lwrist 4.57065e-013 -7.42869 -1.10658e-013
lhand 18.766 7.0799 -16.9036
rfemur 0.989062 1.3143 14.4901
rtibia -9.54166e-015 -3.97569e-015 1.59028e-015
rfoot -11.6807 14.7638 -6.27924
rtoes 9.62118e-014 1.22253e-014 -6.59965e-014
lfemur -37.4177 -8.92105 -9.22091
ltibia 5.93586 -1.59028e-014 -2.3059e-014
lfoot -7.21548 -2.04908 14.6509
ltoes 1.68569e-013 4.26393e-014 9.14409e-015
651
root 3.69033 3.48616 -0.390681 107.107 -74.356 104.917
lowerback -9.37026 2.29007 1.21226
upperback -2.34849 2.87847 -0.585215
thorax 2.89986 1.40906 -0.949449
lowerneck 12.2037 -0.197041 -3.42157
upperneck -8.46494 -0.643305 1.81357
head -4.50845 -0.317006 1.16169
rshoulderjoint 1.14485 -2.6605 -34.2931
rhumerus 4.45041 -9.76572 -56.1213
rradius 42.1791 0 -1.43125e-013
rwrist 4.91576e-013 8.13887 -2.85949e-013
rhand 7.02586 -6.64851 35.1419
lshoulderjoint 2.54388 9.92041 25.4606
lhumerus -7.41904 8.25059 50.4456
lradius 23.8733 -5.40694e-014 -2.38542e-014
lwrist 2.77571e-013 -7.62315 4.01114e-014
lhand 18.844 7.29627 -16.6979
rfemur 1.66743 1.44829 14.472
rtibia -1.90833e-014 0 -1.59028e-015
rfoot -11.8681 14.6201 -6.49517
rtoes 6.52014e-014 -8.07066e-014 -9.54166e-015
lfemur -35.6843 -8.39307 -9.51931
ltibia 6.36111e-015 1.74931e-014 1.59028e-015
lfoot -5.53909 -2.50667 13.7853
ltoes 4.45278e-014 -6.65929e-015 -7.31528e-014
652
root 3.64592 3.4766 -0.388764 107.328 -74.351 105.139
lowerback -9.54308 2.37129 1.28746
upperback -2.27866 2.97907 -0.617887
thorax 3.07606 1.46096 -1.00445
lowerneck 12.1034 -0.242033 -3.42042
upperneck -8.44843 -0.696487 1.84627
head -4.48534 -0.345022 1.17497
rshoulderjoint 1.18756 -2.76704 -34.2391
rhumerus 4.81638 -9.66222 -56.1017
rradius 42.4557 5.24792e-014 4.53229e-014
rwrist 1.95978e-013 8.11834 -3.05211e-014
rhand 6.97932 -6.58228 35.1358
lshoulderjoint 2.52225 9.83248 25.4643
lhumerus -7.70482 8.76525 50.3645
lradius 23.9427 4.45278e-014 1.145e-013
lwrist 3.68973e-014 -7.56198 1.71653e-013
lhand 19.0279 7.20655 -16.4152
rfemur 2.42497 1.54622 14.4099
rtibia 2.22639e-014 7.15625e-015 -2.38542e-015
rfoot -11.9786 14.4308 -6.63315
rtoes -2.70347e-014 9.26337e-014 3.73715e-014
lfemur -36.3939 -7.92686 -9.91092
ltibia 4.13472e-014 9.54166e-015 1.19271e-014
lfoot -6.86942 -2.04327 13.1791
ltoes -2.41722e-013 -1.68967e-015 1.59028e-014
653
root 3.60107 3.46692 -0.38667 107.378 -74.3894 105.249
lowerback -9.69658 2.42998 1.42758
upperback -2.1912 3.04318 -0.631018
thorax 3.2615 1.49575 -1.07994
lowerneck 12.0037 -0.270754 -3.46291
upperneck -8.47174 -0.729834 1.92644
head -4.47478 -0.364547 1.20875
rshoulderjoint 1.20377 -2.81371 -34.1738
rhumerus 5.13755 -9.47401 -56.0254
rradius 42.7328 6.04305e-014 -1.18476e-013
rwrist 4.04677e-013 7.98851 -3.11537e-013
rhand 6.89933 -6.49836 35.2242
lshoulderjoint 2.50617 9.79147 25.4329
lhumerus -7.88589 9.13269 50.2819
lradius 24.016 -1.90833e-013 2.78299e-015
lwrist 4.02399e-013 -7.27523 2.06811e-013
lhand 19.0951 6.94986 -16.1323
rfemur 3.21749 1.59982 14.4078
rtibia 2.22639e-014 -3.18055e-015 -2.38542e-015
rfoot -12.0583 14.3706 -6.79508
rtoes 6.67916e-014 -1.2434e-013 -4.13472e-014
lfemur -36.9057 -7.54058 -10.2899
ltibia -6.04305e-014 -6.36111e-015 2.38542e-015
lfoot -8.06346 -1.62379 12.7936
ltoes 2.41722e-013 -3.73218e-014 -2.90226e-014
